<svg width="65" height="52" viewBox="0 0 65 52" fill="none" xmlns="http://www.w3.org/2000/svg">
<path d="M50.1453 11.5975C54.0415 11.5975 57.3591 13.0496 60.098 15.954C62.8754 18.8206 64.2641 22.3473 64.2641 26.5341C64.2641 30.7209 62.8754 34.2664 60.098 37.1708C57.3591 40.0374 54.0415 41.4707 50.1453 41.4707C46.0949 41.4707 42.9703 40.094 40.7714 37.3405V51.9943H33.307V12.3896H40.7714V15.7277C42.9703 12.9743 46.0949 11.5975 50.1453 11.5975ZM43.0281 32.3051C44.5326 33.7761 46.4421 34.5116 48.7567 34.5116C51.0712 34.5116 52.9807 33.7761 54.4852 32.3051C56.0282 30.7963 56.7998 28.8726 56.7998 26.5341C56.7998 24.1955 56.0282 22.2907 54.4852 20.8197C52.9807 19.311 51.0712 18.5566 48.7567 18.5566C46.4421 18.5566 44.5326 19.311 43.0281 20.8197C41.5236 22.2907 40.7714 24.1955 40.7714 26.5341C40.7714 28.8726 41.5236 30.7963 43.0281 32.3051Z" fill="black"/>
<path d="M30.3267 19.3582H23.7881V31.1264C23.7881 32.1071 24.0388 32.8238 24.5403 33.2764C25.0418 33.7291 25.7747 33.9931 26.7391 34.0684C27.7035 34.1062 28.8993 34.0874 30.3267 34.0119V40.6315C25.1961 41.1973 21.5699 40.7258 19.4482 39.2171C17.3651 37.7083 16.3236 35.0115 16.3236 31.1264V19.3582H11.2894V12.3425H16.3236V6.62813L23.7881 4.42157V12.3425H30.3267V19.3582Z" fill="black"/>
<path d="M4.57125 9.00299C3.33683 9.00299 2.25669 8.56923 1.33087 7.7017C0.443624 6.79645 0 5.74033 0 4.53333C0 3.32633 0.443624 2.27021 1.33087 1.36496C2.25669 0.459704 3.33683 0.00708008 4.57125 0.00708008C5.84426 0.00708008 6.92439 0.459704 7.81164 1.36496C8.73746 2.27021 9.20037 3.32633 9.20037 4.53333C9.20037 5.74033 8.73746 6.79645 7.81164 7.7017C6.92439 8.56923 5.84426 9.00299 4.57125 9.00299ZM0.86796 40.6867V12.3976H8.33241V40.6867H0.86796Z" fill="black"/>
</svg>
