<svg width="35" height="28" viewBox="0 0 35 28" fill="none" xmlns="http://www.w3.org/2000/svg">
<path d="M27.0014 6.24481C29.0993 6.24481 30.8857 7.0267 32.3605 8.59059C33.856 10.1341 34.6038 12.0332 34.6038 14.2876C34.6038 16.542 33.856 18.4511 32.3605 20.015C30.8857 21.5586 29.0993 22.3304 27.0014 22.3304C24.8203 22.3304 23.1379 21.5891 21.9538 20.1064V27.9969H17.9346V6.67128H21.9538V8.46876C23.1379 6.98613 24.8203 6.24481 27.0014 6.24481ZM23.169 17.395C23.9791 18.1871 25.0073 18.5832 26.2536 18.5832C27.4999 18.5832 28.5281 18.1871 29.3382 17.395C30.169 16.5826 30.5845 15.5468 30.5845 14.2876C30.5845 13.0283 30.169 12.0027 29.3382 11.2106C28.5281 10.3982 27.4999 9.99202 26.2536 9.99202C25.0073 9.99202 23.9791 10.3982 23.169 11.2106C22.3589 12.0027 21.9538 13.0283 21.9538 14.2876C21.9538 15.5468 22.3589 16.5826 23.169 17.395Z" fill="white"/>
<path d="M16.3298 10.4237H12.809V16.7604C12.809 17.2885 12.9439 17.6744 13.214 17.9181C13.484 18.1618 13.8787 18.304 14.398 18.3446C14.9172 18.3649 15.5612 18.3548 16.3298 18.3141V21.8785C13.5671 22.1832 11.6146 21.9293 10.4721 21.1169C9.35046 20.3045 8.78963 18.8524 8.78963 16.7604V10.4237H6.07892V6.64597H8.78963V3.56901L12.809 2.38086V6.64597H16.3298V10.4237Z" fill="white"/>
<path d="M2.46144 4.84774C1.79675 4.84774 1.21514 4.61417 0.716622 4.14704C0.238874 3.6596 0 3.09092 0 2.44099C0 1.79107 0.238874 1.22239 0.716622 0.734948C1.21514 0.247505 1.79675 0.00378418 2.46144 0.00378418C3.14691 0.00378418 3.72852 0.247505 4.20627 0.734948C4.70479 1.22239 4.95405 1.79107 4.95405 2.44099C4.95405 3.09092 4.70479 3.6596 4.20627 4.14704C3.72852 4.61417 3.14691 4.84774 2.46144 4.84774ZM0.467363 21.9082V6.67562H4.48668V21.9082H0.467363Z" fill="white"/>
</svg>
